<svg width="26" height="26" viewBox="0 0 26 26" fill="none" xmlns="http://www.w3.org/2000/svg">
<mask id="mask0_203_4167" style="mask-type:luminance" maskUnits="userSpaceOnUse" x="0" y="0" width="26" height="26">
<path d="M25.5388 10.4664H13.4055V15.383H20.3896C19.7385 18.5064 17.0159 20.2995 13.4055 20.2995C9.14398 20.2995 5.71113 16.9447 5.71113 12.7801C5.71113 8.61544 9.14398 5.2606 13.4055 5.2606C15.2403 5.2606 16.8975 5.89686 18.1996 6.93802L21.9876 3.23613C19.6793 1.2695 16.7199 0.0548172 13.4055 0.0548172C6.18462 0.0548172 0.384277 5.72334 0.384277 12.7801C0.384277 19.8368 6.18462 25.5053 13.4055 25.5053C19.9161 25.5053 25.8348 20.878 25.8348 12.7801C25.8348 12.0281 25.7164 11.2183 25.5388 10.4664Z" fill="white"/>
</mask>
<g mask="url(#mask0_203_4167)">
<path d="M-0.79834 20.2991V5.2602L9.26349 12.7797L-0.79834 20.2991Z" fill="#FBBC05"/>
</g>
<mask id="mask1_203_4167" style="mask-type:luminance" maskUnits="userSpaceOnUse" x="0" y="0" width="26" height="26">
<path d="M25.5388 10.4664H13.4055V15.383H20.3896C19.7385 18.5064 17.0159 20.2995 13.4055 20.2995C9.14398 20.2995 5.71113 16.9447 5.71113 12.7801C5.71113 8.61544 9.14398 5.2606 13.4055 5.2606C15.2403 5.2606 16.8975 5.89686 18.1996 6.93802L21.9876 3.23613C19.6793 1.2695 16.7199 0.0548172 13.4055 0.0548172C6.18462 0.0548172 0.384277 5.72334 0.384277 12.7801C0.384277 19.8368 6.18462 25.5053 13.4055 25.5053C19.9161 25.5053 25.8348 20.878 25.8348 12.7801C25.8348 12.0281 25.7164 11.2183 25.5388 10.4664Z" fill="white"/>
</mask>
<g mask="url(#mask1_203_4167)">
<path d="M-0.79834 5.26038L9.26349 12.7798L13.4066 9.25148L27.6115 6.99564V-1.10225H-0.79834V5.26038Z" fill="#EA4335"/>
</g>
<mask id="mask2_203_4167" style="mask-type:luminance" maskUnits="userSpaceOnUse" x="0" y="0" width="26" height="26">
<path d="M25.5388 10.4664H13.4055V15.383H20.3896C19.7385 18.5064 17.0159 20.2995 13.4055 20.2995C9.14398 20.2995 5.71113 16.9447 5.71113 12.7801C5.71113 8.61544 9.14398 5.2606 13.4055 5.2606C15.2403 5.2606 16.8975 5.89686 18.1996 6.93802L21.9876 3.23613C19.6793 1.2695 16.7199 0.0548172 13.4055 0.0548172C6.18462 0.0548172 0.384277 5.72334 0.384277 12.7801C0.384277 19.8368 6.18462 25.5053 13.4055 25.5053C19.9161 25.5053 25.8348 20.878 25.8348 12.7801C25.8348 12.0281 25.7164 11.2183 25.5388 10.4664Z" fill="white"/>
</mask>
<g mask="url(#mask2_203_4167)">
<path d="M-0.79834 20.2993L16.9578 6.99564L21.6336 7.57406L27.6115 -1.10225V26.6619H-0.79834V20.2993Z" fill="#34A853"/>
</g>
<mask id="mask3_203_4167" style="mask-type:luminance" maskUnits="userSpaceOnUse" x="0" y="0" width="26" height="26">
<path d="M25.5388 10.4664H13.4055V15.383H20.3896C19.7385 18.5064 17.0159 20.2995 13.4055 20.2995C9.14398 20.2995 5.71113 16.9447 5.71113 12.7801C5.71113 8.61544 9.14398 5.2606 13.4055 5.2606C15.2403 5.2606 16.8975 5.89686 18.1996 6.93802L21.9876 3.23613C19.6793 1.2695 16.7199 0.0548172 13.4055 0.0548172C6.18462 0.0548172 0.384277 5.72334 0.384277 12.7801C0.384277 19.8368 6.18462 25.5053 13.4055 25.5053C19.9161 25.5053 25.8348 20.878 25.8348 12.7801C25.8348 12.0281 25.7164 11.2183 25.5388 10.4664Z" fill="white"/>
</mask>
<g mask="url(#mask3_203_4167)">
<path d="M27.6105 26.6618L9.26251 12.7797L6.89502 11.0444L27.6105 5.2602V26.6618Z" fill="#4285F4"/>
</g>
</svg>
